HIERARCHY
ROOT Hips
{
 OFFSET 0.000000 0.000000 0.000000
 CHANNELS 6 Xposition Yposition Zposition Yrotation Xrotation Zrotation
 JOINT Chest
 {
  OFFSET 0.000000 9.585900 0.002600
  CHANNELS 3 Yrotation Xrotation Zrotation
  JOINT Chest2
  {
   OFFSET 0.000000 9.601200 -0.005300
   CHANNELS 3 Yrotation Xrotation Zrotation
   JOINT Chest3
   {
    OFFSET 0.000000 9.561800 0.000000
    CHANNELS 3 Yrotation Xrotation Zrotation
    JOINT Chest4
    {
     OFFSET 0.000000 9.552100 0.000000
     CHANNELS 3 Yrotation Xrotation Zrotation
     JOINT Neck
     {
      OFFSET 0.000000 14.453000 0.000000
      CHANNELS 3 Yrotation Xrotation Zrotation
      JOINT Head
      {
       OFFSET 0.000000 8.936500 -0.011300
       CHANNELS 3 Yrotation Xrotation Zrotation
       End Site
       {
        OFFSET 0.000000 17.073600 -0.006000
       }
      }
     }
     JOINT RightCollar
     {
      OFFSET -2.921100 9.558500 0.000000
      CHANNELS 3 Yrotation Xrotation Zrotation
      JOINT RightShoulder
      {
       OFFSET -13.519700 0.000000 0.000000
       CHANNELS 3 Yrotation Xrotation Zrotation
       JOINT RightElbow
       {
        OFFSET 0.000000 -29.696600 0.000000
        CHANNELS 3 Yrotation Xrotation Zrotation
        JOINT RightWrist
        {
         OFFSET 0.000000 -24.004700 0.000000
         CHANNELS 3 Yrotation Xrotation Zrotation
         End Site
         {
          OFFSET 0.000000 -17.728500 0.000000
         }
        }
       }
      }
     }
     JOINT LeftCollar
     {
      OFFSET 2.921100 9.558500 0.000000
      CHANNELS 3 Yrotation Xrotation Zrotation
      JOINT LeftShoulder
      {
       OFFSET 13.519700 0.000000 0.000000
       CHANNELS 3 Yrotation Xrotation Zrotation
       JOINT LeftElbow
       {
        OFFSET 0.000000 -29.696600 0.000000
        CHANNELS 3 Yrotation Xrotation Zrotation
        JOINT LeftWrist
        {
         OFFSET 0.000000 -24.004700 0.000000
         CHANNELS 3 Yrotation Xrotation Zrotation
         End Site
         {
          OFFSET 0.000000 -17.728500 0.000000
         }
        }
       }
      }
     }
    }
   }
  }
 }
 JOINT RightHip
 {
  OFFSET -7.771700 -0.012900 -0.001300
  CHANNELS 3 Yrotation Xrotation Zrotation
  JOINT RightKnee
  {
   OFFSET 0.000000 -40.869800 0.001200
   CHANNELS 3 Yrotation Xrotation Zrotation
   JOINT RightAnkle
   {
    OFFSET 0.000000 -39.717900 0.002100
    CHANNELS 3 Yrotation Xrotation Zrotation
    JOINT RightToe
    {
     OFFSET 0.000000 -4.965400 11.033500
     CHANNELS 3 Yrotation Xrotation Zrotation
     End Site
     {
      OFFSET 0.000000 -1.423100 5.872300
     }
    }
   }
  }
 }
 JOINT LeftHip
 {
  OFFSET 7.771700 -0.012900 -0.001300
  CHANNELS 3 Yrotation Xrotation Zrotation
  JOINT LeftKnee
  {
   OFFSET 0.000000 -40.869800 0.001200
   CHANNELS 3 Yrotation Xrotation Zrotation
   JOINT LeftAnkle
   {
    OFFSET 0.000000 -39.717900 0.002100
    CHANNELS 3 Yrotation Xrotation Zrotation
    JOINT LeftToe
    {
     OFFSET 0.000000 -4.965400 11.033500
     CHANNELS 3 Yrotation Xrotation Zrotation
     End Site
     {
      OFFSET 0.000000 -1.423100 5.872300
     }
    }
   }
  }
 }
}
MOTION
Frames: 15
Frame Time: 0.008333
-45.436184 43.792923 28.531606 176.650231 -21.702877 0.105020 -0.684812 16.673371 3.076955 -0.119837 1.754081 0.398687 -0.191714 2.921175 0.664224 -0.600811 14.692358 3.292013 -1.627909 16.495807 -4.354472 -0.712612 -8.321306 -4.258110 8.265098 1.687707 -4.836561 -4.409955 -6.167631 -2.425273 135.714521 -81.443937 -123.735692 -1.511210 7.959829 -42.311361 -15.384631 -1.002164 -4.961174 10.005371 -3.763842 -0.160560 -173.372731 -78.396814 160.914021 14.595788 11.419371 38.937516 -0.737387 -70.764526 9.085249 -150.570456 67.198084 -150.303948 -14.055251 -26.351012 10.520249 0.360638 -1.211039 0.196502 4.948186 -58.870837 -5.907941 175.561686 62.568117 175.701344 -1.823611 -37.112941 2.984006 0.017829 0.141488 0.012346
-45.436403 43.791482 28.536291 176.618323 -21.672654 0.100963 -0.667405 16.643088 3.091360 -0.106874 1.756069 0.396047 -0.197063 2.917929 0.667405 -0.599145 14.696356 3.291808 -1.630852 16.493321 -4.354817 -0.717783 -8.315944 -4.261953 8.258194 1.683208 -4.837774 -4.413450 -6.187156 -2.429341 135.788561 -81.427836 -123.827823 -1.518153 7.985453 -42.278372 -15.388297 -1.013147 -4.958947 10.018367 -3.769934 -0.148905 -173.274877 -78.389250 160.861872 14.583995 11.419471 38.917630 -0.748008 -70.791367 9.127289 -150.507251 67.213065 -150.248721 -14.019409 -26.328257 10.505359 0.333511 -1.207747 0.195684 4.961655 -58.904571 -5.885385 175.564097 62.566082 175.706243 -1.824295 -37.115105 2.981436 0.017716 0.142392 0.015398
-45.437207 43.791940 28.536597 176.603965 -21.670959 0.095442 -0.658680 16.639477 3.104051 -0.109925 1.755289 0.395578 -0.195019 2.917566 0.668355 -0.606663 14.690335 3.298006 -1.628856 16.500414 -4.363678 -0.726574 -8.310607 -4.261140 8.263116 1.694134 -4.847559 -4.441159 -6.235998 -2.436878 135.822855 -81.424062 -123.869622 -1.525054 7.983091 -42.257327 -15.386866 -1.013877 -4.967238 10.035861 -3.776003 -0.138913 -173.181153 -78.371870 160.837659 14.580339 11.432500 38.871706 -0.757014 -70.789983 9.146620 -150.508164 67.222440 -150.249295 -13.989810 -26.310606 10.483563 0.308631 -1.215227 0.197965 4.964323 -58.906045 -5.871489 175.576255 62.565601 175.721074 -1.816345 -37.117441 2.977567 0.018780 0.141049 0.017520
-45.435407 43.792115 28.537961 176.599926 -21.663709 0.071396 -0.652802 16.631149 3.132840 -0.112673 1.754359 0.395796 -0.192670 2.917402 0.667890 -0.604314 14.691844 3.295836 -1.635582 16.498533 -4.358593 -0.720786 -8.307939 -4.267873 8.256689 1.694198 -4.845564 -4.447994 -6.261378 -2.443456 135.866214 -81.409872 -123.935978 -1.524827 7.937401 -42.279237 -15.394692 -1.022405 -4.960261 10.053255 -3.781122 -0.130489 -173.150880 -78.359643 160.859772 14.573071 11.436340 38.840920 -0.824827 -70.794102 9.220856 -150.505117 67.230185 -150.248037 -13.950884 -26.293783 10.455200 0.310698 -1.189764 0.190454 4.941243 -58.918203 -5.831255 175.582996 62.561765 175.734503 -1.814476 -37.118653 2.977519 0.017429 0.137461 0.015127
-45.435210 43.792572 28.538470 176.605359 -21.661124 0.055637 -0.658168 16.627830 3.148703 -0.119024 1.751868 0.400146 -0.184289 2.920074 0.661710 -0.619495 14.686544 3.301601 -1.629685 16.503352 -4.365519 -0.716639 -8.306360 -4.271325 8.265630 1.698724 -4.848511 -4.455467 -6.282196 -2.454462 135.921413 -81.392285 -124.017637 -1.535091 7.947086 -42.258377 -15.390129 -1.032330 -4.969098 10.069433 -3.776182 -0.124435 -173.079552 -78.337976 160.844442 14.571459 11.442065 38.807540 -0.867307 -70.794503 9.259368 -150.550043 67.238420 -150.289133 -13.945129 -26.295157 10.440142 0.345728 -1.166410 0.188096 4.933971 -58.923715 -5.812105 175.595464 62.560847 175.749857 -1.819179 -37.117072 2.988832 0.016563 0.136682 0.014542
-45.436985 43.792977 28.538679 176.606720 -21.658926 0.055273 -0.663281 16.623863 3.149265 -0.120307 1.751865 0.400559 -0.187705 2.922435 0.662691 -0.626898 14.685528 3.302231 -1.620198 16.504043 -4.372610 -0.719220 -8.308432 -4.268938 8.274985 1.696178 -4.847742 -4.460405 -6.293939 -2.466864 136.009409 -81.367810 -124.137153 -1.538302 7.898121 -42.304810 -15.384768 -1.033850 -4.978632 10.082583 -3.785907 -0.116991 -173.061133 -78.336087 160.845961 14.566976 11.420411 38.819145 -0.866534 -70.795111 9.258365 -150.590117 67.245250 -150.322908 -13.976574 -26.311773 10.444821 0.352700 -1.140091 0.182453 4.949096 -58.925538 -5.823129 175.593225 62.562292 175.752161 -1.822205 -37.113907 2.991984 0.017453 0.134242 0.014927
-45.440686 43.794894 28.534413 176.633598 -21.683398 0.060171 -0.697845 16.646873 3.132801 -0.121478 1.752364 0.401172 -0.186962 2.919439 0.663980 -0.639446 14.684404 3.304221 -1.613154 16.504436 -4.377997 -0.707194 -8.317369 -4.279055 8.278516 1.701892 -4.848095 -4.450716 -6.298865 -2.476539 136.112538 -81.334574 -124.277248 -1.539337 7.870479 -42.324283 -15.377517 -1.027283 -4.990396 10.102107 -3.807561 -0.105239 -173.076248 -78.343011 160.876096 14.552688 11.378263 38.884626 -0.850477 -70.765144 9.212539 -150.697588 67.251400 -150.418182 -14.040840 -26.352713 10.460704 0.363330 -1.114003 0.176191 4.960130 -58.895740 -5.857058 175.599910 62.567889 175.760111 -1.827198 -37.113332 3.000758 0.018270 0.134018 0.015282
-45.442719 43.796114 28.531416 176.650495 -21.698496 0.059231 -0.722757 16.663221 3.123856 -0.122251 1.753143 0.401821 -0.187819 2.917886 0.667086 -0.648980 14.686265 3.307360 -1.604669 16.498713 -4.385158 -0.698434 -8.321940 -4.285410 8.278734 1.707412 -4.843365 -4.438037 -6.321268 -2.499758 136.178304 -81.312568 -124.376289 -1.541759 7.851500 -42.327431 -15.368006 -1.028121 -5.001449 10.138382 -3.833307 -0.088740 -173.084011 -78.345887 160.902126 14.546821 11.373993 38.886661 -0.860723 -70.751190 9.205570 -150.751937 67.246099 -150.469116 -14.070573 -26.372028 10.469205 0.345868 -1.105215 0.167532 4.968799 -58.877929 -5.876917 175.601208 62.569607 175.766598 -1.829155 -37.110303 3.003682 0.018384 0.130813 0.016332
-45.443532 43.796752 28.529365 176.651695 -21.705777 0.056600 -0.733284 16.674529 3.120282 -0.122553 1.753935 0.402261 -0.185259 2.916425 0.670672 -0.652980 14.688461 3.312780 -1.600301 16.492062 -4.390350 -0.692506 -8.324125 -4.291233 8.285825 1.705647 -4.849485 -4.444164 -6.338342 -2.511700 136.216229 -81.299188 -124.433095 -1.538724 7.828526 -42.341886 -15.359611 -1.033889 -5.010369 10.164142 -3.846555 -0.081210 -173.046554 -78.332152 160.890401 14.537793 11.376445 38.884319 -0.889024 -70.743610 9.227053 -150.792595 67.243836 -150.511928 -14.073505 -26.394854 10.475055 0.333518 -1.108329 0.157348 4.979704 -58.868916 -5.882047 175.601717 62.569254 175.774113 -1.834437 -37.109209 3.007436 0.019504 0.127768 0.016345
-45.445494 43.796701 28.528536 176.637963 -21.702463 0.065569 -0.727303 16.673784 3.112860 -0.127569 1.758099 0.400298 -0.187119 2.915835 0.671969 -0.657341 14.690719 3.314286 -1.590715 16.484965 -4.391099 -0.683744 -8.328111 -4.295404 8.299211 1.700680 -4.849390 -4.459344 -6.353771 -2.524440 136.240260 -81.305163 -124.447256 -1.522439 7.796241 -42.375956 -15.352266 -1.038241 -5.014060 10.181536 -3.857789 -0.078485 -172.945376 -78.316080 160.832808 14.544009 11.388981 38.858594 -0.868363 -70.745825 9.218392 -150.801453 67.243353 -150.519409 -14.091440 -26.428519 10.492562 0.333658 -1.083578 0.145896 5.018906 -58.868214 -5.899364 175.606003 62.569833 175.782227 -1.842659 -37.108723 3.018453 0.020480 0.125955 0.015514
-45.446132 43.796790 28.527191 176.629020 -21.700712 0.064826 -0.723478 16.674985 3.113581 -0.129188 1.761528 0.398794 -0.198423 2.926940 0.668517 -0.643243 14.684426 3.320345 -1.586172 16.477326 -4.390625 -0.678972 -8.336569 -4.295759 8.287607 1.694019 -4.834513 -4.491986 -6.381945 -2.554336 136.340778 -81.294593 -124.543308 -1.523533 7.796968 -42.355788 -15.356188 -1.047044 -5.011604 10.193244 -3.861965 -0.079800 -172.753946 -78.278729 160.738395 14.536917 11.400417 38.815010 -0.882239 -70.744793 9.238191 -150.843346 67.247941 -150.560472 -14.095087 -26.464912 10.501868 0.356062 -1.093214 0.143136 5.025035 -58.868342 -5.892529 175.604715 62.568443 175.780687 -1.843095 -37.111041 3.025197 0.019472 0.126064 0.009971
-45.447215 43.796643 28.526371 176.620633 -21.693322 0.067013 -0.724474 16.676277 3.106623 -0.122136 1.755625 0.402935 -0.202974 2.933376 0.666092 -0.645553 14.697625 3.319194 -1.574532 16.461066 -4.385874 -0.671130 -8.344856 -4.295673 8.295206 1.673985 -4.831129 -4.496383 -6.386231 -2.560001 136.371392 -81.264433 -124.611091 -1.536160 7.809836 -42.318513 -15.355595 -1.066895 -5.004717 10.209423 -3.867472 -0.084666 -172.577813 -78.257373 160.625712 14.523272 11.394191 38.793425 -0.894552 -70.748466 9.247280 -150.868869 67.253211 -150.588551 -14.074351 -26.492419 10.500089 0.342343 -1.091303 0.136787 5.035700 -58.873173 -5.891972 175.614516 62.568802 175.788892 -1.839362 -37.116398 3.028889 0.017972 0.129248 0.008581
-45.447228 43.796610 28.525334 176.607727 -21.685753 0.066919 -0.725552 16.684647 3.100641 -0.114220 1.747707 0.406399 -0.201420 2.934289 0.665894 -0.639458 14.694348 3.320801 -1.573684 16.468222 -4.380990 -0.667977 -8.356558 -4.294503 8.292684 1.669914 -4.826722 -4.519972 -6.399882 -2.565902 136.394422 -81.242081 -124.651852 -1.531220 7.808128 -42.305281 -15.364726 -1.072675 -4.998897 10.235675 -3.869137 -0.099810 -172.410581 -78.241971 160.497851 14.517945 11.386505 38.782321 -0.903697 -70.754038 9.264957 -150.872860 67.255481 -150.593537 -14.060461 -26.509378 10.498454 0.326988 -1.085835 0.132796 5.046050 -58.877830 -5.880894 175.624577 62.568073 175.796842 -1.839953 -37.124108 3.035863 0.017431 0.131756 0.007494
-45.444479 43.795836 28.526386 176.576851 -21.663798 0.060966 -0.696895 16.667982 3.114870 -0.121145 1.757710 0.401429 -0.193377 2.926208 0.669202 -0.632997 14.693008 3.322513 -1.574381 16.470677 -4.375783 -0.665231 -8.360133 -4.289732 8.289462 1.668232 -4.814376 -4.554993 -6.414878 -2.588818 136.416862 -81.228102 -124.679121 -1.530978 7.796303 -42.302993 -15.376145 -1.071309 -4.991116 10.249594 -3.875064 -0.106799 -172.289158 -78.229914 160.426495 14.514268 11.375275 38.782339 -0.935838 -70.772998 9.328326 -150.846265 67.260164 -150.572517 -14.033395 -26.525620 10.493444 0.289463 -1.074404 0.127706 5.066909 -58.899678 -5.855034 175.632485 62.563577 175.810992 -1.843825 -37.129312 3.041992 0.015301 0.131183 0.007347
-45.440641 43.795795 28.525478 176.566473 -21.652655 0.049186 -0.684304 16.658342 3.129871 -0.123318 1.761871 0.397054 -0.192119 2.925893 0.669072 -0.627372 14.698606 3.318971 -1.573186 16.465954 -4.363843 -0.667108 -8.356994 -4.280586 8.277971 1.662487 -4.797001 -4.555640 -6.423738 -2.601934 136.347415 -81.191775 -124.673084 -1.548103 7.794654 -42.273926 -15.388156 -1.077417 -4.977563 10.270092 -3.874853 -0.118652 -172.169179 -78.218190 160.345976 14.508620 11.365057 38.787589 -0.990917 -70.780030 9.398055 -150.841981 67.261500 -150.571815 -14.029656 -26.546269 10.490322 0.306088 -1.064509 0.130120 5.055314 -58.912414 -5.823215 175.643098 62.558986 175.824185 -1.838512 -37.132195 3.039849 0.014491 0.128520 0.006702
